<!DOCTYPE svg PUBLIC "-//W3C//DTD SVG 1.1//EN" "http://www.w3.org/Graphics/SVG/1.1/DTD/svg11.dtd">
<!-- Uploaded to: SVG Repo, www.svgrepo.com, Transformed by: SVG Repo Mixer Tools -->
<svg height="800px" width="800px" version="1.1" id="Layer_1" xmlns="http://www.w3.org/2000/svg" xmlns:xlink="http://www.w3.org/1999/xlink" viewBox="0 0 141.74 141.74" xml:space="preserve" fill="#000000">
<g id="SVGRepo_bgCarrier" stroke-width="0"/>
<g id="SVGRepo_tracerCarrier" stroke-linecap="round" stroke-linejoin="round"/>
<g id="SVGRepo_iconCarrier"> <g> <circle style="fill:#d62000;" cx="70.87" cy="70.87" r="70.87"/> <g> <path style="fill:#FFFFFF;" d="M52.549,69.223l6.203-17.638c0.238-0.678,0.922-1.132,1.604-1.1 c0.718,0.022,1.339,0.506,1.534,1.197l9.042,31.888l9.241-25.412c0.217-0.596,0.757-1.015,1.388-1.076 c0.624-0.064,1.242,0.245,1.57,0.787l6.657,11.011h26.408c2.323-6.602,2.03-10.982,2.03-10.982 c0-14.33-11.616-25.946-25.946-25.946c-8.891,0-16.734,4.474-21.41,11.292c-4.676-6.82-12.519-11.294-21.41-11.294 c-14.33,0-25.947,11.617-25.947,25.946c0,0-0.303,4.532,2.153,11.326L52.549,69.223L52.549,69.223z"/> <path style="fill:#FFFFFF;" d="M88.86,72.174c-0.577,0-1.112-0.302-1.41-0.795l-5.356-8.86l-9.807,26.967 c-0.237,0.652-0.857,1.084-1.547,1.084c-0.02,0-0.041,0-0.061-0.001c-0.714-0.026-1.33-0.51-1.525-1.197l-9.017-31.797 l-4.867,13.84c-0.232,0.66-0.855,1.101-1.554,1.101H27.011c4.865,10.708,16.43,25.381,43.853,37.267v0.005 c0.002-0.001,0.004-0.002,0.006-0.003c0.003,0.001,0.004,0.002,0.006,0.003v-0.005c27.716-12.013,39.235-26.875,44.009-37.61 L88.86,72.174L88.86,72.174z"/> </g> </g> </g>
</svg>